# xmcd
#
# Track frame offsets:
#	150
#	16081
#	34554
#	51002
#	65245
#	85683
#	101124
#	118225
#	138977
#	153599
#	171256
#	186787
#	203340
#	222586
#	239905
#	257549
#	286495
#	303572
#	323242
#	342270
#
# Disc length: 4912 seconds
#
# Revision: 0
# Processed by: cddbd v1.5.2PL0 Copyright (c) Steve Scherf et al.
# Submitted via: audiograbber 1.83.01
#
DISCID=2b132e14
DTITLE=V/A - R&B Anthems: Classic Jams [CD 1 of 3) (2016)
DYEAR=2016
DGENRE=R&B
TTITLE0=A Tribe Called Quest - Can I Kick It
TTITLE1=Fugees - Fu-Gee-La
TTITLE2=TLC - No Scrubs
TTITLE3=Jennifer Lopez - Jenny From The Block
TTITLE4=OutKast - Ms. Jackson
TTITLE5=Whitney Houston - Million Dollar Bill
TTITLE6=DJ Jazzy Jeff and The Fresh Prince - Boom! Shake The Room
TTITLE7=Justin Timberlake - Señorita
TTITLE8=Miguel - Adorn
TTITLE9=John Legend feat André 3000 - Green Light
TTITLE10=Jordin Sparks - One Step At A Time
TTITLE11=Usher - You Make Me Wanna...
TTITLE12=R. Kelly - Bump n' Grind
TTITLE13=Chris Brown - Yo (Excuse Me Miss)
TTITLE14=J. Cole feat Kanye West - Work Out
TTITLE15=Tina Moore - Nobody Better
TTITLE16=Blaque - Bring It All To Me
TTITLE17=Donell Jones - Put Me Down
TTITLE18=Allure feat Nas - Head Over Heels
TTITLE19=Deborah Cox - Just Be Good To Me
EXTD=
EXTT0=
EXTT1=
EXTT2=
EXTT3=
EXTT4=
EXTT5=
EXTT6=
EXTT7=
EXTT8=
EXTT9=
EXTT10=
EXTT11=
EXTT12=
EXTT13=
EXTT14=
EXTT15=
EXTT16=
EXTT17=
EXTT18=
EXTT19=
PLAYORDER=
